<?xml version="1.0" encoding="UTF-8" standalone="no"?>
<svg width="301px" height="99px" viewBox="0 0 301 99" version="1.1" xmlns="http://www.w3.org/2000/svg" xmlns:xlink="http://www.w3.org/1999/xlink" xmlns:sketch="http://www.bohemiancoding.com/sketch/ns">
    <!-- Generator: Sketch 3.4.3 (16044) - http://www.bohemiancoding.com/sketch -->
    <title>Logo</title>
    <desc>Created with Sketch.</desc>
    <defs></defs>
    <g id="Page-1" stroke="none" stroke-width="1" fill="none" fill-rule="evenodd" sketch:type="MSPage">
        <g id="Balken-links-schmal" sketch:type="MSArtboardGroup" transform="translate(-490.000000, -18.000000)">
            <g id="Logo" sketch:type="MSLayerGroup" transform="translate(503.000000, 27.000000)">
                <path d="M0,76.9999996 C0,76.9999996 17.1141361,47.8043381 17.3356417,47.4504908 C20.5835185,42.2621241 46.9153714,3.0646023 75,48 C105.000007,95.9999994 138,44 138,44 C138,44 165.000006,3.99999933 195,47.9999996 C225,91.9999994 249,36.9999996 249,36.9999996 L275,7.67826123e-08" id="Path-10" stroke="#301700" stroke-width="30" sketch:type="MSShapeGroup"></path>
                <path d="M0,76.9999996 C0,76.9999996 17.1141361,47.8043381 17.3356417,47.4504908 C20.5835185,42.2621241 46.9153714,3.0646023 75,48 C105.000007,95.9999994 138,44 138,44 C138,44 165.000006,3.99999933 195,47.9999996 C225,91.9999994 249,36.9999996 249,36.9999996 L275,7.67826123e-08" id="Path-10-copy" stroke="#F7F7F7" sketch:type="MSShapeGroup"></path>
                <path d="M241,54 C255,70.7272727 264,77 264,77" id="Path-11" stroke="#000000" stroke-width="30" sketch:type="MSShapeGroup"></path>
            </g>
        </g>
    </g>
</svg>