<?xml version="1.0" encoding="iso-8859-1"?>
<!-- Generator: Adobe Illustrator 19.0.0, SVG Export Plug-In . SVG Version: 6.00 Build 0)  -->
<svg version="1.1" id="Layer_1" xmlns="http://www.w3.org/2000/svg" xmlns:xlink="http://www.w3.org/1999/xlink" x="0px" y="0px"
	 viewBox="0 0 512 512" style="enable-background:new 0 0 512 512;" xml:space="preserve">
<g>
	<g>
		<path d="M478.01,128.591l-4.101-7.131l-6.97,4.372c-6.391,4.008-13.625,6.127-20.918,6.127c-9.167,0-17.886-3.232-25.215-9.35
			l-4.128-3.446l-4.725,2.567c-6.047,3.284-12.344,4.95-18.716,4.95c-21.829,0-39.588-17.758-39.588-39.588
			c0-3.091,0.491-6.352,1.543-10.26l1.544-5.737l-5.076-3.087c-11.977-7.286-19.126-19.884-19.126-33.7
			c0-4.252,0.805-8.575,2.464-13.214l2.802-7.848l-7.981-2.398C305.857,3.651,281.021,0,256,0
			C187.619,0,123.331,26.628,74.979,74.979C26.628,123.331,0,187.619,0,256s26.628,132.669,74.979,181.021
			C123.331,485.372,187.619,512,256,512s132.669-26.628,181.021-74.979C485.372,388.669,512,324.381,512,256
			C512,211.32,500.246,167.261,478.01,128.591z M425.824,425.824c-45.361,45.36-105.672,70.341-169.824,70.341
			s-124.462-24.981-169.824-70.341C40.816,380.462,15.835,320.152,15.835,256S40.816,131.538,86.176,86.176
			C131.538,40.816,191.848,15.835,256,15.835c20.883,0,41.629,2.709,61.782,8.063c-0.724,3.502-1.081,6.952-1.081,10.411
			c0,17.46,8.102,33.513,21.936,43.97c-0.556,3.072-0.822,5.953-0.822,8.814c0,30.56,24.863,55.423,55.423,55.423
			c7.372,0,14.612-1.537,21.582-4.576c9.303,6.464,19.991,9.855,31.201,9.855c7.532,0,14.994-1.589,21.955-4.64
			c18.463,34.627,28.19,73.479,28.19,112.846C496.165,320.152,471.184,380.462,425.824,425.824z"/>
	</g>
</g>
<g>
	<g>
		<path d="M160.99,95.01c-21.829,0-39.588,17.758-39.588,39.588c0,21.829,17.759,39.588,39.588,39.588
			c21.829,0,39.588-17.758,39.588-39.588S182.819,95.01,160.99,95.01z M160.99,158.351c-13.098,0-23.753-10.656-23.753-23.753
			c0-13.097,10.655-23.753,23.753-23.753c13.098,0,23.753,10.656,23.753,23.753C184.742,147.695,174.087,158.351,160.99,158.351z"/>
	</g>
</g>
<g>
	<g>
		<path d="M409.072,216.412c-21.829,0-39.588,17.758-39.588,39.588s17.758,39.588,39.588,39.588S448.66,277.829,448.66,256
			C448.66,234.171,430.901,216.412,409.072,216.412z M409.072,279.753c-13.097,0-23.753-10.656-23.753-23.753
			c0-13.097,10.656-23.753,23.753-23.753c13.097,0,23.753,10.656,23.753,23.753C432.825,269.097,422.169,279.753,409.072,279.753z"
			/>
	</g>
</g>
<g>
	<g>
		<path d="M129.32,290.309c-21.829,0-39.588,17.758-39.588,39.588s17.758,39.588,39.588,39.588s39.588-17.758,39.588-39.588
			S151.149,290.309,129.32,290.309z M129.32,353.649c-13.098,0-23.753-10.656-23.753-23.753c0-13.097,10.655-23.753,23.753-23.753
			c13.098,0,23.753,10.656,23.753,23.753C153.072,342.994,142.417,353.649,129.32,353.649z"/>
	</g>
</g>
<g>
	<g>
		<path d="M266.557,195.299c-21.829,0-39.588,17.759-39.588,39.588c0,21.829,17.759,39.588,39.588,39.588
			c21.829,0,39.588-17.758,39.588-39.588C306.144,213.057,288.386,195.299,266.557,195.299z M266.557,258.639
			c-13.098,0-23.753-10.656-23.753-23.753c0-13.097,10.655-23.753,23.753-23.753c13.097,0,23.753,10.656,23.753,23.753
			C290.309,247.983,279.653,258.639,266.557,258.639z"/>
	</g>
</g>
<g>
	<g>
		<path d="M308.784,358.928c-21.829,0-39.588,17.758-39.588,39.588s17.758,39.588,39.588,39.588s39.588-17.758,39.588-39.588
			S330.613,358.928,308.784,358.928z M308.784,422.268c-13.097,0-23.753-10.656-23.753-23.753c0-13.097,10.656-23.753,23.753-23.753
			c13.097,0,23.753,10.656,23.753,23.753C332.536,411.612,321.88,422.268,308.784,422.268z"/>
	</g>
</g>
<g>
</g>
<g>
</g>
<g>
</g>
<g>
</g>
<g>
</g>
<g>
</g>
<g>
</g>
<g>
</g>
<g>
</g>
<g>
</g>
<g>
</g>
<g>
</g>
<g>
</g>
<g>
</g>
<g>
</g>
</svg>
