<svg width="59" height="59" viewBox="0 0 59 59" fill="none" xmlns="http://www.w3.org/2000/svg">
<path fill-rule="evenodd" clip-rule="evenodd" d="M54.6106 13.9964L55.0832 14.8181C57.6455 19.2742 59 24.3513 59 29.5C59 37.3798 55.9315 44.788 50.3598 50.3598C44.788 55.9315 37.3798 59 29.5 59C21.6202 59 14.212 55.9315 8.64016 50.3598C3.06846 44.788 0 37.3798 0 29.5C0 21.6202 3.06846 14.212 8.64016 8.64016C14.212 3.06846 21.6202 0 29.5 0C32.3833 0 35.2452 0.420721 38.0065 1.25006L38.9262 1.52639L38.6033 2.43075C38.4121 2.96533 38.3193 3.46348 38.3193 3.95346C38.3193 5.54554 39.1432 6.99726 40.5233 7.83686L41.1082 8.19259L40.9303 8.85369C40.8091 9.30402 40.7525 9.6798 40.7525 10.036C40.7525 12.5516 42.799 14.5979 45.3144 14.5979C46.0487 14.5979 46.7743 14.4059 47.4711 14.0275L48.0156 13.7317L48.4913 14.1288C49.3359 14.8338 50.3406 15.2062 51.3969 15.2062C52.2374 15.2062 53.071 14.962 53.8074 14.5002L54.6106 13.9964ZM29.5 57.1753C36.8925 57.1753 43.8424 54.2966 49.0696 49.0696C54.2966 43.8423 57.1753 36.8925 57.1754 29.5001C57.1754 24.9637 56.0545 20.4866 53.9269 16.4964C53.1248 16.848 52.2649 17.0311 51.397 17.0311C50.1052 17.0311 48.8736 16.6403 47.8015 15.8954C46.9983 16.2456 46.164 16.4227 45.3145 16.4227C41.793 16.4227 38.9279 13.5577 38.9279 10.0361C38.9279 9.70642 38.9586 9.37443 39.0226 9.02043C37.4285 7.81543 36.4948 5.96557 36.4948 3.95358C36.4948 3.55498 36.536 3.15742 36.6194 2.75387C34.2971 2.13691 31.9064 1.82474 29.5 1.82474C22.1075 1.82474 15.1577 4.70341 9.93044 9.93044C4.70341 15.1577 1.82474 22.1075 1.82474 29.5C1.82474 36.8925 4.70341 43.8423 9.93044 49.0696C15.1577 54.2966 22.1075 57.1753 29.5 57.1753Z" fill="#270042"/>
<path fill-rule="evenodd" clip-rule="evenodd" d="M14 15.5C14 13.0186 16.0187 11 18.5 11C20.9813 11 23 13.0186 23 15.5C23 17.9814 20.9813 20 18.5 20C16.0187 20 14 17.9813 14 15.5ZM15.8 15.5C15.8 16.9887 17.0111 18.2 18.5 18.2C19.9887 18.2 21.1999 16.9887 21.2 15.5C21.2 14.0113 19.9889 12.8 18.5 12.8C17.0111 12.8 15.8 14.0113 15.8 15.5Z" fill="#270042"/>
<path fill-rule="evenodd" clip-rule="evenodd" d="M43 29.5C43 27.0186 45.0187 25 47.5 25C49.9813 25 52 27.0187 52 29.5C52 31.9813 49.9814 34 47.5 34C45.0186 34 43 31.9814 43 29.5ZM44.8 29.5C44.8 30.9887 46.0113 32.2 47.5 32.2C48.9887 32.2 50.2 30.9887 50.2 29.5C50.2 28.0113 48.9887 26.8 47.5 26.8C46.0113 26.8 44.8 28.0113 44.8 29.5Z" fill="#270042"/>
<path fill-rule="evenodd" clip-rule="evenodd" d="M10 38.5C10 36.0186 12.0187 34 14.5 34C16.9813 34 19 36.0186 19 38.5C19 40.9814 16.9814 43 14.5 43C12.0186 43 10 40.9814 10 38.5ZM11.8 38.4999C11.8 39.9886 13.0111 41.1999 14.5 41.1999C15.9887 41.1999 17.1999 39.9887 17.2 38.4999C17.2 37.0111 15.9889 35.7999 14.5 35.7999C13.0111 35.7999 11.8 37.0111 11.8 38.4999Z" fill="#270042"/>
<path fill-rule="evenodd" clip-rule="evenodd" d="M26 27.5C26 25.0187 28.0187 23 30.5 23C32.9813 23 34.9999 25.0186 35 27.5C35 29.9814 32.9813 32 30.5 32C28.0187 32 26 29.9813 26 27.5ZM27.8 27.4999C27.8 28.9886 29.0111 30.1999 30.5 30.1999C31.9886 30.1999 33.1999 28.9886 33.2 27.4999C33.2 26.0111 31.9887 24.7999 30.5 24.7999C29.0111 24.7999 27.8 26.0111 27.8 27.4999Z" fill="#270042"/>
<path fill-rule="evenodd" clip-rule="evenodd" d="M31 45.5C31 43.0186 33.0187 41 35.5 41C37.9813 41 40 43.0186 40 45.5C40 47.9814 37.9814 50 35.5 50C33.0186 50 31 47.9814 31 45.5ZM32.8 45.4999C32.8 46.9886 34.0113 48.1999 35.5 48.1999C36.9886 48.1999 38.1999 46.9886 38.2 45.4999C38.2 44.0111 36.9887 42.7999 35.5 42.7999C34.0113 42.7999 32.8 44.0111 32.8 45.4999Z" fill="#270042"/>
</svg>
