<?xml version="1.0" encoding="UTF-8" standalone="no"?>
<svg width="405px" height="189px" viewBox="0 0 405 189" version="1.1" xmlns="http://www.w3.org/2000/svg" xmlns:xlink="http://www.w3.org/1999/xlink" xmlns:sketch="http://www.bohemiancoding.com/sketch/ns">
    <defs></defs>
    <g id="Page-1" stroke="none" stroke-width="1" fill="none" fill-rule="evenodd" sketch:type="MSPage">
        <g id="logo" sketch:type="MSLayerGroup" fill="#2F1B0E">
            <g id="Group" sketch:type="MSShapeGroup">
                <path d="M75.2,159.1 L65.3,171.2 L55.8,159.3 L50.3,163.6 L64,179.9 C64.7,180.7 65.9,180.7 66.6,179.9 L80.3,163.6 L75.2,159.1 L75.2,159.1 Z" id="Shape"></path>
                <path d="M403.4,110.3 L367.1,59.7 L403.3,9.2 C406,5.5 403.3,0.4 398.8,0.4 L366.9,0.4 C363.3,0.4 359.9,2.1 357.8,5.1 L307.4,75.3 L307.4,75.3 C305,78.6 303.5,80.6 300.1,80.6 C296.6,80.6 295.1,78.6 292.7,75.3 L292.7,75.3 L292.7,75.3 L269.3,42.7 L269.3,42.7 L269.3,42.7 C259.4,28.9 245.1,21 229.9,21 C214.8,21 200.4,28.9 190.5,42.7 L190.5,42.7 L167.1,75.3 L167.1,75.3 L167.1,75.3 L167.1,75.3 C164.7,78.6 163.3,80.6 159.8,80.6 C156.2,80.6 154.8,78.6 152.4,75.3 L152.4,75.3 L152.4,75.3 L129,42.7 L129,42.7 L129,42.7 C119.1,28.9 104.8,21 89.6,21 C74.5,21 60.1,28.9 50.2,42.7 L50.2,42.7 L2,110.3 C-0.7,114 2,119.1 6.5,119.1 L38.4,119.1 C42,119.1 45.4,117.4 47.5,114.4 L82.6,65.5 L82.6,65.5 C85,62.2 86.6,60.2 89.9,60.2 C93.2,60.2 94.9,62.2 97.3,65.5 L97.3,65.5 L97.3,65.5 L120.7,98.1 L120.7,98.1 L120.7,98.1 C130.6,111.9 144.9,119.8 160.1,119.8 C175.2,119.8 189.6,111.9 199.5,98.1 L199.5,98.1 L222.9,65.5 L222.9,65.5 L222.9,65.5 L222.9,65.5 C225.3,62.2 226.4,60.2 230.2,60.2 C234,60.2 235.2,62.2 237.6,65.5 L237.6,65.5 L237.6,65.5 L261,98.1 L261,98.1 L261,98.1 C270.9,111.9 285.2,119.8 300.4,119.8 C315.5,119.8 329.9,111.9 339.8,98.1 L339.8,98.1 L343.2,93.4 L358.3,114.4 C360.4,117.3 363.8,119.1 367.4,119.1 L399.3,119.1 C403.4,119.1 406,114 403.4,110.3 L403.4,110.3 Z" id="Shape"></path>
                <path d="M207.6,188.3 L204.8,188.3 C203.7,188.3 202.8,187.4 202.8,186.3 L202.8,167.1 C202.8,166 203.7,165.1 204.8,165.1 L207.6,165.1 C208.7,165.1 209.6,166 209.6,167.1 L209.6,186.3 C209.6,187.4 208.7,188.3 207.6,188.3 L207.6,188.3 Z" id="Shape"></path>
                <path d="M127.5,188.3 L124.7,188.3 C123.6,188.3 122.7,187.4 122.7,186.3 L122.7,167.1 C122.7,166 123.6,165.1 124.7,165.1 L127.5,165.1 C128.6,165.1 129.5,166 129.5,167.1 L129.5,186.3 C129.5,187.4 128.6,188.3 127.5,188.3 L127.5,188.3 Z" id="Shape"></path>
                <path d="M54.3,188.3 L50.7,188.3 C49.7,188.3 49,187.5 49,186.6 L49,160.3 C49,159.3 49.8,158.6 50.7,158.6 L54.3,158.6 C55.3,158.6 56,159.4 56,160.3 L56,186.6 C56.1,187.5 55.3,188.3 54.3,188.3 L54.3,188.3 Z" id="Shape"></path>
                <path d="M80.1,188.3 L76.5,188.3 C75.5,188.3 74.8,187.5 74.8,186.6 L74.8,160.3 C74.8,159.3 75.6,158.6 76.5,158.6 L80.1,158.6 C81.1,158.6 81.8,159.4 81.8,160.3 L81.8,186.6 C81.8,187.5 81.1,188.3 80.1,188.3 L80.1,188.3 Z" id="Shape"></path>
                <path d="M249.1,188.3 L245.5,188.3 C244.5,188.3 243.8,187.5 243.8,186.6 L243.8,160.3 C243.8,159.3 244.6,158.6 245.5,158.6 L249.1,158.6 C250.1,158.6 250.8,159.4 250.8,160.3 L250.8,186.6 C250.9,187.5 250,188.3 249.1,188.3 L249.1,188.3 Z" id="Shape"></path>
                <path d="M180.9,188.3 L178.1,188.3 C177,188.3 176.1,187.4 176.1,186.3 L176.1,167.1 C176.1,166 177,165.1 178.1,165.1 L180.9,165.1 C182,165.1 182.9,166 182.9,167.1 L182.9,186.3 C182.9,187.4 182,188.3 180.9,188.3 L180.9,188.3 Z" id="Shape"></path>
                <path d="M202.8,186.3 L202.8,183.6 C202.8,182.5 203.7,181.6 204.8,181.6 L218.6,181.6 C219.7,181.6 220.6,182.5 220.6,183.6 L220.6,186.3 C220.6,187.4 219.7,188.3 218.6,188.3 L204.8,188.3 C203.7,188.3 202.8,187.4 202.8,186.3 L202.8,186.3 Z" id="Shape"></path>
                <path d="M176.1,177.2 L176.1,175.8 C176.1,174.7 177,173.8 178.1,173.8 L192.3,173.8 C193.4,173.8 194.3,174.7 194.3,175.8 L194.3,177.2 C194.3,178.3 193.4,179.2 192.3,179.2 L178.1,179.2 C177,179.1 176.1,178.3 176.1,177.2 L176.1,177.2 Z" id="Shape"></path>
                <path d="M176.1,186.3 L176.1,184.9 C176.1,183.8 177,182.9 178.1,182.9 L192.3,182.9 C193.4,182.9 194.3,183.8 194.3,184.9 L194.3,186.3 C194.3,187.4 193.4,188.3 192.3,188.3 L178.1,188.3 C177,188.3 176.1,187.4 176.1,186.3 L176.1,186.3 Z" id="Shape"></path>
                <path d="M176.1,168.5 L176.1,167.1 C176.1,166 177,165.1 178.1,165.1 L192.3,165.1 C193.4,165.1 194.3,166 194.3,167.1 L194.3,168.5 C194.3,169.6 193.4,170.5 192.3,170.5 L178.1,170.5 C177,170.5 176.1,169.6 176.1,168.5 L176.1,168.5 Z" id="Shape"></path>
                <path d="M339,188.3 L336.2,188.3 C335.1,188.3 334.2,187.4 334.2,186.3 L334.2,167.1 C334.2,166 335.1,165.1 336.2,165.1 L339,165.1 C340.1,165.1 341,166 341,167.1 L341,186.3 C341,187.4 340.1,188.3 339,188.3 L339,188.3 Z" id="Shape"></path>
                <path d="M355.1,188.3 L352.3,188.3 C351.2,188.3 350.3,187.4 350.3,186.3 L350.3,167.1 C350.3,166 351.2,165.1 352.3,165.1 L355.1,165.1 C356.2,165.1 357.1,166 357.1,167.1 L357.1,186.3 C357.1,187.4 356.2,188.3 355.1,188.3 L355.1,188.3 Z" id="Shape"></path>
                <path d="M335.5,177.4 L335.5,176 C335.5,174.9 336.4,174 337.5,174 L351.7,174 C352.8,174 353.7,174.9 353.7,176 L353.7,177.4 C353.7,178.5 352.8,179.4 351.7,179.4 L337.5,179.4 C336.4,179.4 335.5,178.5 335.5,177.4 L335.5,177.4 Z" id="Shape"></path>
                <path d="M161,182.1 C157.6,182.1 155,179 155.7,175.5 C156.1,173.5 157.7,171.9 159.7,171.4 C160.9,171.1 162,171.2 162.9,171.6 C163.6,171.9 164.4,171.7 165,171.1 L167.1,169 C168.1,168 167.8,166.5 166.6,165.8 C164.7,164.8 162.6,164.3 160.3,164.4 C154.1,164.7 149,169.9 148.8,176.1 C148.5,183.1 154.1,188.8 161,188.8 C163.1,188.8 165,188.3 166.7,187.4 C167.9,186.8 168.2,185.2 167.2,184.2 L165.1,182.1 C164.6,181.6 163.7,181.4 163,181.6 C162.4,182 161.7,182.1 161,182.1 L161,182.1 Z" id="Shape"></path>
                <path d="M319,182.1 C315.6,182.1 313,179 313.7,175.5 C314.1,173.5 315.7,171.9 317.7,171.4 C318.9,171.1 320,171.2 320.9,171.6 C321.6,171.9 322.4,171.7 323,171.1 L325.1,169 C326.1,168 325.8,166.5 324.6,165.8 C322.7,164.8 320.6,164.3 318.3,164.4 C312.1,164.7 307,169.9 306.8,176.1 C306.5,183.1 312.1,188.8 319,188.8 C321.1,188.8 323,188.3 324.7,187.4 C325.9,186.8 326.2,185.2 325.2,184.2 L323.1,182.1 C322.6,181.6 321.7,181.4 321,181.6 C320.4,182 319.7,182.1 319,182.1 L319,182.1 Z" id="Shape"></path>
                <path d="M288.3,164.5 C281.6,164.5 276.1,170 276.1,176.7 C276.1,183.4 281.6,188.9 288.3,188.9 C295,188.9 300.5,183.4 300.5,176.7 C300.5,170 295,164.5 288.3,164.5 L288.3,164.5 Z M288.3,182.1 C285.3,182.1 282.9,179.7 282.9,176.7 C282.9,173.7 285.3,171.3 288.3,171.3 C291.3,171.3 293.7,173.7 293.7,176.7 C293.7,179.7 291.3,182.1 288.3,182.1 L288.3,182.1 Z" id="Shape"></path>
                <g transform="translate(89.000000, 165.000000)" id="Shape">
                    <path d="M4,17 L4,15.6 C4,14.5 4.9,13.6 6,13.6 L20.2,13.6 C21.3,13.6 22.2,14.5 22.2,15.6 L22.2,17 C22.2,18.1 21.3,19 20.2,19 L6,19 C4.8,19 4,18.1 4,17 L4,17 Z"></path>
                    <path d="M13.4,0.1 L10.1,0.1 C9.4,0.1 8.8,0.5 8.5,1.2 L0.7,21 C0.3,22.1 1.1,23.3 2.3,23.3 L6.3,23.3 C7,23.3 7.7,22.8 7.9,22.1 L14,2.3 C14.4,1.2 14.6,0.1 13.4,0.1 L13.4,0.1 Z"></path>
                    <path d="M12.8,0.1 L16.1,0.1 C16.8,0.1 17.4,0.5 17.7,1.2 L25.5,21 C25.9,22.1 25.1,23.3 23.9,23.3 L19.9,23.3 C19.2,23.3 18.5,22.8 18.3,22.1 L12.2,2.3 C11.8,1.2 11.6,0.1 12.8,0.1 L12.8,0.1 Z"></path>
                </g>
                <path d="M134.9,165.1 L126.3,165.1 L126.3,169.3 L131.5,169.3 C133.4,169.3 134.9,170.8 134.9,172.5 C134.9,174.2 133.4,175.7 131.5,175.7 L128.3,175.7 L128.3,179.3 L134.9,179.3 C138.5,179.3 141.5,176.1 141.5,172.2 C141.5,168.3 138.5,165.1 134.9,165.1 L134.9,165.1 Z" id="Shape"></path>
                <path d="M134.5,177.3 L131,177.3 C129.6,177.3 128.8,178.9 129.6,180 L135.3,187.6 C135.6,188 136.1,188.3 136.7,188.3 L140.3,188.3 C141.7,188.3 142.5,186.7 141.7,185.6 L136,178 C135.6,177.5 135.1,177.3 134.5,177.3 L134.5,177.3 Z" id="Shape"></path>
                <path d="M260,172.7 L256.2,172.7 C254.8,172.7 254,174.3 254.8,175.4 L264,187.6 C264.3,188 264.8,188.3 265.4,188.3 L269.2,188.3 C270.6,188.3 271.4,186.7 270.6,185.6 L261.4,173.4 C261,173 260.5,172.7 260,172.7 L260,172.7 Z" id="Shape"></path>
                <path d="M265.2,158.5 L269.1,158.5 C270.5,158.5 271.3,160.1 270.5,161.2 L251.2,187.6 C250.9,188 250.4,188.3 249.8,188.3 L246,188.3 C244.6,188.3 243.8,186.7 244.6,185.6 L264,159.2 C264.1,158.8 264.8,158.5 265.2,158.5 L265.2,158.5 Z" id="Shape"></path>
            </g>
        </g>
    </g>
</svg>
