<?xml version="1.0" encoding="UTF-8" standalone="no"?>

<svg width="347px" height="61px" viewBox="0 0 347 61" version="1.1" xmlns="http://www.w3.org/2000/svg" xmlns:xlink="http://www.w3.org/1999/xlink">
    <g id="Page-1" stroke="none" stroke-width="1" fill="none" fill-rule="evenodd">
        <g id="MarcelKoch-logo-horizontal" fill="#FFFFFF">
            <path d="M205.5,56.1 L187,30.3 L205.5,4.5 C206.9,2.6 205.5,0 203.2,0 L186.9,0 C185.1,0 183.3,0.9 182.3,2.4 L156.6,38.2 L156.6,38.2 C155.4,39.9 154.6,40.9 152.9,40.9 C151.1,40.9 150.3,39.9 149.1,38.2 L149.1,38.2 L149.1,38.2 L137.2,21.6 L137.2,21.6 L137.2,21.6 C132.1,14.6 124.9,10.5 117.1,10.5 C109.4,10.5 102,14.5 97,21.6 L97,21.6 L85.1,38.2 L85.1,38.2 L85.1,38.2 L85.1,38.2 C83.9,39.9 83.2,40.9 81.4,40.9 C79.6,40.9 78.8,39.9 77.6,38.2 L77.6,38.2 L77.6,38.2 L65.7,21.6 L65.7,21.6 L65.7,21.6 C60.6,14.6 53.4,10.5 45.6,10.5 C37.9,10.5 30.5,14.5 25.5,21.6 L25.5,21.6 L0.9,56.1 C-0.5,58 0.9,60.6 3.2,60.6 L19.5,60.6 C21.3,60.6 23.1,59.7 24.1,58.2 L42,33.3 L42,33.3 C43.2,31.6 44,30.6 45.7,30.6 C47.4,30.6 48.3,31.6 49.5,33.3 L49.5,33.3 L49.5,33.3 L61.4,49.9 L61.4,49.9 L61.4,49.9 C66.5,56.9 73.7,61 81.5,61 C89.2,61 96.6,57 101.6,49.9 L101.6,49.9 L113.5,33.3 L113.5,33.3 L113.5,33.3 L113.5,33.3 C114.7,31.6 115.3,30.6 117.2,30.6 C119.1,30.6 119.8,31.6 121,33.3 L121,33.3 L121,33.3 L132.9,49.9 L132.9,49.9 L132.9,49.9 C138,56.9 145.2,61 153,61 C160.7,61 168.1,57 173.1,49.9 L173.1,49.9 L174.8,47.5 L182.5,58.2 C183.6,59.7 185.3,60.6 187.1,60.6 L203.4,60.6 C205.5,60.6 206.8,58 205.5,56.1 Z" id="Path"></path>
            <g id="Group" transform="translate(220.000000, 10.000000)">
                <path d="M23.2,0.8 L20.5,0.8 C20.1,0.8 19.8,1 19.6,1.2 L19.6,1.2 L12.3,10.1 L5.3,1.3 L5.2,1.3 C5,1 4.6,0.7 4.2,0.7 L1.5,0.7 C0.8,0.7 0.2,1.2 0.2,2 L0.2,21.4 C0.2,22.1 0.7,22.7 1.5,22.7 L4.2,22.7 C4.9,22.7 5.5,22.1 5.5,21.4 L5.5,9.5 L11.4,16.5 C11.9,17.1 12.8,17.1 13.3,16.5 L19.3,9.3 L19.3,21.4 C19.3,22.1 19.8,22.7 20.6,22.7 L23.3,22.7 C24,22.7 24.6,22.1 24.6,21.4 L24.6,2.1 C24.4,1.4 23.9,0.8 23.2,0.8 Z" id="Path"></path>
                <path d="M125.1,17.8 L118.5,17.8 L118.5,7.1 C118.5,6.3 117.8,5.6 117,5.6 L115,5.6 C114.2,5.6 113.5,6.3 113.5,7.1 L113.5,19.2 L113.5,19.2 L113.5,21.2 C113.5,22 114.2,22.7 115,22.7 L115,22.7 L117.1,22.7 L125.2,22.7 C126,22.7 126.7,22 126.7,21.2 L126.7,19.2 C126.6,18.4 126,17.8 125.1,17.8 Z" id="Path"></path>
                <path d="M105.8,5.6 L97.4,5.6 L95.3,5.6 C94.5,5.6 93.8,6.3 93.8,7.1 L93.8,8.1 L93.8,13.5 L93.8,14.5 L93.8,20.2 L93.8,21.2 C93.8,22 94.5,22.7 95.3,22.7 L97.4,22.7 L105.8,22.7 C106.6,22.7 107.3,22 107.3,21.2 L107.3,20.2 C107.3,19.4 106.6,18.7 105.8,18.7 L98.9,18.7 L98.9,16 L105.8,16 C106.6,16 107.3,15.3 107.3,14.5 L107.3,13.5 C107.3,12.7 106.6,12 105.8,12 L98.9,12 L98.9,9.6 L105.8,9.6 C106.6,9.6 107.3,8.9 107.3,8.1 L107.3,7.1 C107.2,6.3 106.6,5.6 105.8,5.6 Z" id="Path"></path>
                <path d="M82.2,33.5 L80.1,33.5 C79.3,33.5 78.6,34.2 78.6,35 L78.6,40.1 L71.8,40.1 L71.8,35 C71.8,34.2 71.1,33.5 70.3,33.5 L68.2,33.5 C67.4,33.5 66.7,34.2 66.7,35 L66.7,49.1 C66.7,49.9 67.4,50.6 68.2,50.6 L70.3,50.6 C71.1,50.6 71.8,49.9 71.8,49.1 L71.8,44 L78.6,44 L78.6,49.1 C78.6,49.9 79.3,50.6 80.1,50.6 L82.2,50.6 C83,50.6 83.7,49.9 83.7,49.1 L83.7,34.9 C83.7,34.1 83,33.5 82.2,33.5 Z" id="Path"></path>
                <path d="M85.7,18.2 C85.3,17.8 84.7,17.7 84.2,17.8 C83.8,18.1 83.2,18.2 82.7,18.2 C80.2,18.2 78.3,15.9 78.8,13.3 C79.1,11.8 80.3,10.6 81.7,10.3 C82.6,10.1 83.4,10.2 84.1,10.4 C84.6,10.6 85.2,10.5 85.6,10 L87.1,8.5 C87.8,7.8 87.6,6.7 86.7,6.1 C85.3,5.4 83.8,5 82.1,5.1 C77.5,5.3 73.8,9.2 73.6,13.7 C73.4,18.9 77.5,23.1 82.6,23.1 C84.1,23.1 85.5,22.7 86.8,22.1 C87.7,21.7 87.9,20.5 87.2,19.7 L85.7,18.2 Z" id="Path"></path>
                <path d="M58.6,46 C58.2,45.6 57.6,45.5 57.1,45.6 C56.7,45.9 56.1,46 55.6,46 C53.1,46 51.2,43.7 51.7,41.1 C52,39.6 53.2,38.4 54.6,38.1 C55.5,37.9 56.3,38 57,38.2 C57.5,38.4 58.1,38.3 58.5,37.8 L60,36.3 C60.7,35.6 60.5,34.5 59.6,33.9 C58.2,33.2 56.7,32.8 55,32.9 C50.4,33.1 46.7,37 46.5,41.5 C46.3,46.7 50.4,50.9 55.5,50.9 C57,50.9 58.4,50.5 59.7,49.9 C60.6,49.5 60.8,48.3 60.1,47.5 L58.6,46 Z" id="Path"></path>
                <path d="M33,33 C28.1,33 24,37.1 24,42 C24,46.9 28.1,51 33,51 C37.9,51 42,46.9 42,42 C42,37.1 38,33 33,33 Z M33,46 C30.8,46 29,44.2 29,42 C29,39.8 30.8,38 33,38 C35.2,38 37,39.8 37,42 C37,44.2 35.2,46 33,46 Z" id="Shape" fill-rule="nonzero"></path>
                <path d="M42.7,6.4 C42.5,5.9 42,5.6 41.5,5.6 L39.5,5.6 L39.1,5.6 L37.1,5.6 C36.6,5.6 36.1,5.9 35.9,6.4 L30.2,21 C29.9,21.8 30.5,22.7 31.4,22.7 L34.3,22.7 C34.8,22.7 35.3,22.3 35.5,21.8 L36.2,19.5 L42.5,19.5 L43.2,21.8 C43.3,22.3 43.9,22.7 44.4,22.7 L47.3,22.7 C48.2,22.7 48.8,21.8 48.5,21 L42.7,6.4 Z M37.5,15.6 L39.4,9.4 L41.3,15.6 L37.5,15.6 Z" id="Shape" fill-rule="nonzero"></path>
                <path d="M64.9,15.9 C66.9,15.3 68.4,13.2 68.4,10.9 C68.4,8 66.2,5.7 63.5,5.7 L58.1,5.7 L57.2,5.7 L56,5.7 C55.2,5.7 54.5,6.4 54.5,7.2 L54.5,21.3 C54.5,22.1 55.2,22.8 56,22.8 L58.1,22.8 C58.9,22.8 59.6,22.1 59.6,21.3 L59.6,16.5 C59.6,16.5 59.6,16.6 59.7,16.6 L63.9,22.2 C64.1,22.5 64.5,22.7 64.9,22.7 L67.6,22.7 C68.6,22.7 69.2,21.5 68.6,20.7 L64.9,15.9 Z M63.5,11.1 C63.5,12.4 62.4,13.5 61,13.5 L59.5,13.5 L59.5,8.8 L61,8.8 C62.4,8.7 63.5,9.8 63.5,11.1 Z" id="Shape" fill-rule="nonzero"></path>
                <path d="M13.3,39.7 L19.9,30.6 C20.5,29.8 19.9,28.6 18.9,28.6 L16,28.6 C15.7,28.6 15.2,28.8 15.1,29.1 L5.4,42.3 L5.4,29.9 C5.4,29.2 4.9,28.6 4.1,28.6 L1.4,28.6 C0.7,28.6 0.1,29.1 0.1,29.9 L0.1,49.3 C0.1,50 0.6,50.6 1.4,50.6 L1.8,50.6 L1.8,50.6 L4.6,50.6 C5,50.6 5.4,50.4 5.6,50.1 L10.2,43.8 L15,50.1 C15.2,50.4 15.6,50.6 16,50.6 L18.8,50.6 C19.8,50.6 20.4,49.4 19.8,48.6 L13.3,39.7 Z" id="Path"></path>
            </g>
        </g>
    </g>
</svg>
